<svg width="34" height="22" viewBox="0 0 34 22" fill="none" xmlns="http://www.w3.org/2000/svg">
<path d="M0 2C0 0.895431 0.895431 0 2 0H32C33.1046 0 34 0.895431 34 2C34 3.10457 33.1046 4 32 4H2C0.89543 4 0 3.10457 0 2Z" fill="#DFD3BD"/>
<path d="M0 11C0 9.89543 0.895431 9 2 9H32C33.1046 9 34 9.89543 34 11C34 12.1046 33.1046 13 32 13H2C0.89543 13 0 12.1046 0 11Z" fill="#DFD3BD"/>
<path d="M2 18C0.895431 18 0 18.8954 0 20C0 21.1046 0.89543 22 2 22H32C33.1046 22 34 21.1046 34 20C34 18.8954 33.1046 18 32 18H2Z" fill="#DFD3BD"/>
</svg>
